<svg width="29" height="28" viewBox="0 0 29 28" fill="none" xmlns="http://www.w3.org/2000/svg">
  <path d="M18.5493 15.7148C18.6294 15.6288 18.726 15.5599 18.8333 15.512C18.9407 15.4642 19.0565 15.4385 19.174 15.4364C19.2915 15.4344 19.4082 15.456 19.5172 15.5C19.6261 15.544 19.7251 15.6095 19.8082 15.6926C19.8913 15.7757 19.9568 15.8746 20.0008 15.9836C20.0448 16.0925 20.0664 16.2092 20.0643 16.3267C20.0622 16.4442 20.0365 16.5601 19.9887 16.6674C19.9409 16.7748 19.8719 16.8714 19.786 16.9515L15.1193 21.6181C14.9552 21.782 14.7328 21.874 14.501 21.874C14.2691 21.874 14.0467 21.782 13.8826 21.6181L9.21596 16.9515C9.12999 16.8714 9.06104 16.7748 9.01322 16.6674C8.96539 16.5601 8.93968 16.4442 8.9376 16.3267C8.93553 16.2092 8.95714 16.0925 9.00115 15.9836C9.04516 15.8746 9.11066 15.7757 9.19375 15.6926C9.27684 15.6095 9.37581 15.544 9.48476 15.5C9.59372 15.456 9.71042 15.4344 9.8279 15.4364C9.94539 15.4385 10.0613 15.4642 10.1686 15.512C10.2759 15.5599 10.3725 15.6288 10.4526 15.7148L13.626 18.8881L13.626 7.58313C13.626 7.35106 13.7181 7.1285 13.8822 6.96441C14.0463 6.80031 14.2689 6.70813 14.501 6.70813C14.733 6.70813 14.9556 6.80031 15.1197 6.96441C15.2838 7.1285 15.376 7.35106 15.376 7.58313L15.376 18.8881L18.5493 15.7148Z" fill="#252525" />
</svg>