<svg width="30" height="30" viewBox="0 0 30 30" fill="none" xmlns="http://www.w3.org/2000/svg">
  <path d="M19.3385 13.1617C19.4244 13.2538 19.5279 13.3277 19.6429 13.3789C19.7579 13.4301 19.882 13.4577 20.0079 13.4599C20.1338 13.4621 20.2588 13.439 20.3755 13.3918C20.4923 13.3447 20.5983 13.2745 20.6873 13.1855C20.7764 13.0964 20.8465 12.9904 20.8937 12.8737C20.9408 12.7569 20.964 12.6319 20.9618 12.506C20.9595 12.3801 20.932 12.256 20.8808 12.141C20.8295 12.026 20.7556 11.9225 20.6635 11.8367L15.6635 6.83667C15.4877 6.66111 15.2495 6.5625 15.001 6.5625C14.7526 6.5625 14.5143 6.66111 14.3385 6.83667L9.33853 11.8367C9.24642 11.9225 9.17254 12.026 9.1213 12.141C9.07006 12.256 9.04251 12.3801 9.04029 12.506C9.03807 12.6319 9.06122 12.7569 9.10838 12.8737C9.15553 12.9904 9.22571 13.0964 9.31473 13.1855C9.40376 13.2745 9.5098 13.3447 9.62653 13.3918C9.74327 13.439 9.8683 13.4621 9.99418 13.4599C10.1201 13.4577 10.2442 13.4301 10.3592 13.3789C10.4742 13.3277 10.5777 13.2538 10.6635 13.1617L14.0635 9.76167V21.8742C14.0635 22.1228 14.1623 22.3613 14.3381 22.5371C14.5139 22.7129 14.7524 22.8117 15.001 22.8117C15.2497 22.8117 15.4881 22.7129 15.6639 22.5371C15.8398 22.3613 15.9385 22.1228 15.9385 21.8742V9.76167L19.3385 13.1617Z" fill="white" />
</svg>