<svg width="29" height="28" viewBox="0 0 29 28" fill="none" xmlns="http://www.w3.org/2000/svg">
  <path d="M16.215 9.95071C16.1291 9.8706 16.0601 9.774 16.0123 9.66667C15.9645 9.55933 15.9388 9.44347 15.9367 9.32598C15.9346 9.2085 15.9562 9.0918 16.0002 8.98284C16.0442 8.87389 16.1097 8.77492 16.1928 8.69183C16.2759 8.60874 16.3749 8.54324 16.4838 8.49923C16.5928 8.45522 16.7095 8.43361 16.827 8.43568C16.9445 8.43776 17.0603 8.46347 17.1677 8.5113C17.275 8.55912 17.3716 8.62807 17.4517 8.71404L22.1184 13.3807C22.2822 13.5448 22.3743 13.7672 22.3743 13.999C22.3743 14.2309 22.2822 14.4533 22.1184 14.6174L17.4517 19.284C17.3716 19.37 17.275 19.439 17.1677 19.4868C17.0603 19.5346 16.9445 19.5603 16.827 19.5624C16.7095 19.5645 16.5928 19.5429 16.4838 19.4988C16.3749 19.4548 16.2759 19.3893 16.1928 19.3063C16.1097 19.2232 16.0442 19.1242 16.0002 19.0152C15.9562 18.9063 15.9346 18.7896 15.9367 18.6721C15.9388 18.5546 15.9645 18.4387 16.0123 18.3314C16.0601 18.2241 16.1291 18.1275 16.215 18.0474L19.3884 14.874L8.08337 14.874C7.85131 14.874 7.62875 14.7819 7.46465 14.6178C7.30056 14.4537 7.20837 14.2311 7.20837 13.999C7.20837 13.767 7.30056 13.5444 7.46465 13.3803C7.62875 13.2162 7.85131 13.124 8.08337 13.124L19.3884 13.124L16.215 9.95071Z" fill="#252525" />
</svg>