<svg width="29" height="28" viewBox="0 0 29 28" fill="none" xmlns="http://www.w3.org/2000/svg">
  <path d="M10.4507 15.7158C10.3706 15.6298 10.274 15.5608 10.1667 15.513C10.0593 15.4652 9.94347 15.4395 9.82598 15.4374C9.7085 15.4353 9.5918 15.457 9.48284 15.501C9.37389 15.545 9.27492 15.6105 9.19183 15.6936C9.10874 15.7766 9.04324 15.8756 8.99923 15.9846C8.95522 16.0935 8.93361 16.2102 8.93568 16.3277C8.93776 16.4452 8.96347 16.5611 9.0113 16.6684C9.05912 16.7757 9.12807 16.8723 9.21404 16.9524L13.8807 21.6191C14.0448 21.783 14.2672 21.875 14.499 21.875C14.7309 21.875 14.9533 21.783 15.1174 21.6191L19.784 16.9524C19.87 16.8723 19.939 16.7757 19.9868 16.6684C20.0346 16.5611 20.0603 16.4452 20.0624 16.3277C20.0645 16.2102 20.0429 16.0935 19.9988 15.9846C19.9548 15.8756 19.8893 15.7766 19.8063 15.6936C19.7232 15.6105 19.6242 15.545 19.5152 15.501C19.4063 15.457 19.2896 15.4353 19.1721 15.4374C19.0546 15.4395 18.9387 15.4652 18.8314 15.513C18.7241 15.5608 18.6275 15.6298 18.5474 15.7158L15.374 18.8891L15.374 7.5841C15.374 7.35204 15.2819 7.12948 15.1178 6.96538C14.9537 6.80129 14.7311 6.7091 14.499 6.7091C14.267 6.7091 14.0444 6.80129 13.8803 6.96538C13.7162 7.12948 13.624 7.35204 13.624 7.5841L13.624 18.8891L10.4507 15.7158Z" fill="white" />
</svg>