<svg width="29" height="28" viewBox="0 0 29 28" fill="none" xmlns="http://www.w3.org/2000/svg">
  <path d="M12.785 9.95071C12.8709 9.8706 12.9399 9.774 12.9877 9.66667C13.0355 9.55933 13.0612 9.44347 13.0633 9.32598C13.0654 9.2085 13.0438 9.0918 12.9998 8.98284C12.9558 8.87389 12.8903 8.77492 12.8072 8.69183C12.7241 8.60874 12.6251 8.54324 12.5162 8.49923C12.4072 8.45522 12.2905 8.43361 12.173 8.43568C12.0555 8.43776 11.9397 8.46347 11.8323 8.5113C11.725 8.55912 11.6284 8.62807 11.5483 8.71404L6.88163 13.3807C6.71777 13.5448 6.62573 13.7672 6.62573 13.999C6.62573 14.2309 6.71777 14.4533 6.88163 14.6174L11.5483 19.284C11.6284 19.37 11.725 19.439 11.8323 19.4868C11.9397 19.5346 12.0555 19.5603 12.173 19.5624C12.2905 19.5645 12.4072 19.5429 12.5162 19.4988C12.6251 19.4548 12.7241 19.3893 12.8072 19.3063C12.8903 19.2232 12.9558 19.1242 12.9998 19.0152C13.0438 18.9063 13.0654 18.7896 13.0633 18.6721C13.0612 18.5546 13.0355 18.4387 12.9877 18.3314C12.9399 18.2241 12.8709 18.1275 12.785 18.0474L9.61163 14.874L20.9166 14.874C21.1487 14.874 21.3713 14.7819 21.5353 14.6178C21.6994 14.4537 21.7916 14.2311 21.7916 13.999C21.7916 13.767 21.6994 13.5444 21.5353 13.3803C21.3713 13.2162 21.1487 13.124 20.9166 13.124L9.61163 13.124L12.785 9.95071Z" fill="#252525" />
</svg>