<svg width="20" height="20" viewBox="0 0 20 20" fill="none" xmlns="http://www.w3.org/2000/svg">
  <path d="M7.95834 12.625L15.0208 5.5625C15.1875 5.39583 15.3819 5.3125 15.6042 5.3125C15.8264 5.3125 16.0208 5.39583 16.1875 5.5625C16.3542 5.72917 16.4375 5.92722 16.4375 6.15667C16.4375 6.38611 16.3542 6.58389 16.1875 6.75L8.54167 14.4167C8.375 14.5833 8.18056 14.6667 7.95834 14.6667C7.73611 14.6667 7.54167 14.5833 7.375 14.4167L3.79167 10.8333C3.625 10.6667 3.545 10.4689 3.55167 10.24C3.55834 10.0111 3.64528 9.81306 3.8125 9.64583C3.97972 9.47861 4.17778 9.39528 4.40667 9.39583C4.63556 9.39639 4.83334 9.47972 5 9.64583L7.95834 12.625Z" fill="#252525" />
</svg>