<svg width="28" height="28" viewBox="0 0 28 28" fill="none" xmlns="http://www.w3.org/2000/svg">
  <path d="M23.3333 4.66699H4.66665C3.38331 4.66699 2.33331 5.71699 2.33331 7.00033V21.0003C2.33331 22.2837 3.38331 23.3337 4.66665 23.3337H23.3333C24.6166 23.3337 25.6666 22.2837 25.6666 21.0003V7.00033C25.6666 5.71699 24.6166 4.66699 23.3333 4.66699ZM22.8666 9.62533L15.2366 14.397C14.4783 14.8753 13.5216 14.8753 12.7633 14.397L5.13331 9.62533C5.01633 9.55966 4.91389 9.47093 4.83218 9.36452C4.75048 9.25811 4.69122 9.13623 4.65798 9.00626C4.62475 8.87628 4.61823 8.74092 4.63883 8.60835C4.65942 8.47578 4.70671 8.34877 4.77781 8.23501C4.84891 8.12125 4.94236 8.02309 5.05249 7.94649C5.16263 7.86988 5.28716 7.81642 5.41856 7.78934C5.54995 7.76226 5.68548 7.76212 5.81693 7.78893C5.94838 7.81574 6.07302 7.86895 6.18331 7.94533L14 12.8337L21.8166 7.94533C21.9269 7.86895 22.0516 7.81574 22.183 7.78893C22.3145 7.76212 22.45 7.76226 22.5814 7.78934C22.7128 7.81642 22.8373 7.86988 22.9475 7.94649C23.0576 8.02309 23.151 8.12125 23.2222 8.23501C23.2933 8.34877 23.3405 8.47578 23.3611 8.60835C23.3817 8.74092 23.3752 8.87628 23.342 9.00626C23.3087 9.13623 23.2495 9.25811 23.1678 9.36452C23.0861 9.47093 22.9836 9.55966 22.8666 9.62533Z" fill="#252525" />
</svg>