<svg width="107" height="106" viewBox="0 0 107 106" fill="none" xmlns="http://www.w3.org/2000/svg">
  <g clip-path="url(#clip0_139_5643)">
    <path d="M106.5 52.9999C106.5 45.5093 102.702 38.9063 96.9247 35.0108C97.6074 31.5233 97.4219 27.9214 96.3844 24.5224C95.3469 21.1235 93.4894 18.0319 90.9755 15.5201C88.4639 13.0059 85.3723 11.1481 81.9733 10.1106C78.5743 9.07312 74.9723 8.88775 71.4847 9.57085C67.5892 3.79385 60.9863 -0.00448608 53.4956 -0.00448608C46.005 -0.00448608 39.402 3.79385 35.5065 9.57085C32.019 8.88775 28.417 9.07312 25.018 10.1106C21.619 11.1481 18.5274 13.0059 16.0158 15.5201C13.5016 18.0317 11.6438 21.1233 10.6063 24.5223C9.56881 27.9213 9.38345 31.5233 10.0665 35.0108C4.28954 38.9063 0.491211 45.5093 0.491211 52.9999C0.491211 60.4906 4.28954 67.0935 10.0665 70.989C9.38345 74.4766 9.56881 78.0786 10.6063 81.4776C11.6438 84.8766 13.5016 87.9682 16.0158 90.4798C18.5274 92.994 21.619 94.8518 25.018 95.8893C28.417 96.9267 32.019 97.1121 35.5065 96.429C39.402 102.206 46.005 106.004 53.4956 106.004C60.9863 106.004 67.5892 102.206 71.4847 96.429C74.9723 97.1121 78.5743 96.9267 81.9733 95.8893C85.3723 94.8518 88.4639 92.994 90.9755 90.4798C93.4897 87.9682 95.3475 84.8766 96.385 81.4776C97.4224 78.0786 97.6078 74.4766 96.9247 70.989C99.8741 69.0062 102.29 66.3281 103.96 63.191C105.63 60.0538 106.502 56.5539 106.5 52.9999ZM53.0981 68.1005C51.4391 69.7458 49.196 70.6671 46.8594 70.6629C44.5229 70.6588 42.2831 69.7295 40.6299 68.0784L28.3427 56.1711L34.4951 49.8243L46.8309 61.7803L72.4873 36.6008L78.6883 42.8946L53.0981 68.1005Z" fill="white" fill-opacity="0.8" />
  </g>
  <defs>
    <clipPath id="clip0_139_5643">
      <rect width="106" height="106" fill="white" transform="translate(0.5)" />
    </clipPath>
  </defs>
</svg>