<svg width="89" height="114" viewBox="0 0 89 114" fill="none" xmlns="http://www.w3.org/2000/svg">
  <path d="M1.38702 7.56343C0.512171 7.97422 0.135991 9.01645 0.546802 9.8913L7.2413 24.1477C7.6521 25.0226 8.69433 25.3988 9.56918 24.988C10.444 24.5772 10.8202 23.5349 10.4094 22.6601L4.45874 9.98769L17.1311 4.03702C18.006 3.62622 18.3822 2.58399 17.9714 1.70915C17.5605 0.834299 16.5183 0.458117 15.6435 0.868927L1.38702 7.56343ZM86.4813 113.268L88.2292 113.181C86.7206 82.7338 80.8314 61.7569 67.387 45.6255C53.9813 29.5405 33.2647 18.5243 2.72497 7.5014L2.13085 9.14747L1.53673 10.7935C31.9623 21.7752 51.9205 32.5346 64.6984 47.8663C77.4376 63.1515 83.241 83.2324 84.7335 113.354L86.4813 113.268Z" fill="#252525" />
</svg>