<svg width="155" height="155" viewBox="0 0 155 155" fill="none" xmlns="http://www.w3.org/2000/svg">
  <g clip-path="url(#clip0_587_1898)">
    <path d="M53.4121 38.4137C61.1489 28.1314 71.6942 20.8709 83.2254 17.915L87.0387 16.9375L88.3605 17.4457C92.2885 18.9512 95.758 21.7285 98.3551 25.4464C100.952 29.1643 102.567 33.6657 103.007 38.4134H105.448C107.955 38.4104 110.395 39.3513 112.397 41.0932V35.7418C112.397 16.5848 98.8874 1 82.2815 1H73.0152C56.4095 1 42.8997 16.5848 42.8997 35.7415V41.0935C44.9017 39.3516 47.3418 38.4107 49.8494 38.4137H53.4121ZM93.8644 100.024L88.2542 97.8662L79.965 121.773V136.932L88.9478 128.296L86.4635 116.833L93.8644 113.988V100.024Z" fill="#FAFDFF" />
    <path d="M49.8494 59.793H56.7992V62.4656C56.7992 71.3372 61.072 79.3131 67.9507 83.2807L69.9073 84.4096C72.312 85.7921 74.9615 86.5136 77.6483 86.5175C80.3353 86.5136 82.985 85.792 85.3899 84.4093L87.346 83.2804C94.2246 79.3131 98.4977 71.3375 98.4977 62.4656V59.793H105.447C109.279 59.793 112.397 56.1963 112.397 51.7757C112.397 47.3552 109.279 43.7584 105.447 43.7584H98.4977V41.0859C98.5009 36.9767 97.3817 32.9709 95.299 29.6373C93.2162 26.3038 90.2759 23.8121 86.8957 22.5162L86.7909 22.4756L84.2305 23.1319C73.3383 25.9243 63.4055 32.9084 56.2628 42.7963L55.5679 43.7581H49.8497C46.0178 43.7581 42.8999 47.3549 42.8999 51.7754C42.8999 56.196 46.0175 59.793 49.8494 59.793Z" fill="#FAFDFF" />
    <path d="M103.025 65.1375C102.63 70.0981 101.141 74.7532 98.7648 78.7233C100.705 80.3123 103.017 81.1718 105.447 81.1718C111.834 81.1718 117.03 75.1777 117.03 67.8097C117.033 64.9161 116.219 62.1003 114.709 59.7891C112.594 63.0344 109.23 65.1372 105.447 65.1372H103.025V65.1375ZM115.208 108.231L98.4974 101.805V117.84L91.9987 120.339L94.1477 130.255L79.9647 143.889V156H89.2309V144.308C89.2309 141.913 90.9196 139.965 92.9954 139.965H113.265C115.341 139.965 117.03 141.913 117.03 144.308V156H126.296V125.978C126.299 122.051 125.23 118.222 123.239 115.037C121.249 111.851 118.439 109.469 115.208 108.231ZM84.5981 90.5544C82.3612 91.4139 80.0038 91.8616 77.6483 91.8616C75.293 91.8616 72.9354 91.4139 70.6985 90.5544V94.0195L77.6483 114.062L84.5981 94.0195V90.5544ZM63.2976 120.339L56.7989 117.84V101.805L40.088 108.231C36.8575 109.469 34.0474 111.851 32.0569 115.037C30.0664 118.222 28.9968 122.051 29 125.978V156H75.3316V143.889L61.1486 130.255L63.2976 120.339Z" fill="#FAFDFF" />
    <path d="M93.8644 145.31H112.397V156H93.8644V145.31ZM61.4324 100.024V113.988L68.8333 116.833L66.3489 128.296L75.3317 136.932V121.773L67.0425 97.8662L61.4324 100.024Z" fill="#FAFDFF" />
  </g>
  <defs>
    <clipPath id="clip0_587_1898">
      <rect width="155" height="155" fill="white" />
    </clipPath>
  </defs>
</svg>