<svg width="138" height="138" viewBox="0 0 138 138" fill="none" xmlns="http://www.w3.org/2000/svg">
  <g clip-path="url(#clip0_80_2)">
    <path d="M36.1447 55.7921C35.3928 55.7913 34.6517 55.6136 33.9811 55.2735C33.3106 54.9334 32.7294 54.4405 32.2845 53.8344C31.8395 53.2283 31.5434 52.5261 31.4199 51.7844C31.2963 51.0428 31.349 50.2824 31.5734 49.5649L36.0814 35.1151L24.6907 25.8461C23.9432 25.2115 23.4085 24.3628 23.1589 23.4146C22.9092 22.4664 22.9565 21.4644 23.2944 20.544C23.6324 19.6236 24.2447 18.829 25.0486 18.2677C25.8526 17.7064 26.8094 17.4053 27.7899 17.4051H42.1707L47.2594 3.12787C47.5995 2.21098 48.2122 1.42017 49.015 0.861715C49.8177 0.303257 50.7722 0.00391388 51.7502 0.00391388C52.7281 0.00391388 53.6826 0.303257 54.4854 0.861715C55.2882 1.42017 55.9008 2.21098 56.2409 3.12787L61.3297 17.4051H75.7104C76.6925 17.4067 77.6504 17.7097 78.4547 18.2732C79.2589 18.8368 79.8708 19.6336 80.2076 20.5561C80.5443 21.4786 80.5898 22.4823 80.3377 23.4314C80.0856 24.3806 79.5483 25.2295 78.7982 25.8634L67.4649 35.0979L72.1512 49.3809C72.4607 50.3235 72.4701 51.339 72.1783 52.2873C71.8865 53.2355 71.3077 54.0699 70.5218 54.6755C69.7358 55.281 68.7814 55.6279 67.7901 55.6683C66.7987 55.7086 65.8193 55.4405 64.9867 54.9009L51.7904 46.3046L38.8127 54.9871C38.0255 55.5159 37.0987 55.7981 36.1504 55.7979L36.1447 55.7921ZM134.188 70.9836L89.9014 119.335C84.5148 125.217 77.9636 129.913 70.664 133.127C63.3645 136.34 55.4764 137.999 47.5009 138H22.9944C16.8945 138 11.0443 135.577 6.73097 131.263C2.41764 126.95 -0.00556946 121.1 -0.00556946 115V86.2499C-0.00556946 80.1499 2.41764 74.2998 6.73097 69.9864C11.0443 65.6731 16.8945 63.2499 22.9944 63.2499H67.7697C75.6702 63.2499 81.9147 70.4949 80.2127 78.6886C79.1029 84.0131 74.4397 87.8771 69.0577 88.6476L45.1262 91.9999C44.379 92.1067 43.6602 92.3597 43.0108 92.7443C42.3614 93.129 41.7941 93.6378 41.3413 94.2416C40.8885 94.8455 40.5591 95.5327 40.3719 96.2639C40.1847 96.995 40.1433 97.756 40.2502 98.5031C40.357 99.2503 40.61 99.9691 40.9946 100.619C41.3793 101.268 41.8881 101.835 42.492 102.288C43.0958 102.741 43.783 103.07 44.5142 103.257C45.2454 103.445 46.0063 103.486 46.7534 103.379L71.2024 99.9521C76.9643 99.1047 82.2313 96.2193 86.0474 91.8198C89.8634 87.4204 91.9755 81.7984 92.0002 75.9746C92.0002 74.7154 91.8162 73.5079 91.6264 72.3061L111.987 50.8184C113.306 49.3781 114.896 48.2126 116.666 47.3886C118.436 46.5647 120.352 46.0986 122.303 46.0171C124.271 45.9208 126.239 46.2157 128.092 46.8849C129.946 47.5541 131.648 48.5842 133.101 49.9156C136.011 52.583 137.756 56.2875 137.96 60.23C138.163 64.1724 136.808 68.0311 134.188 70.9836Z" fill="#D6F2D3" />
  </g>
  <defs>
    <clipPath id="clip0_80_2">
      <rect width="138" height="138" fill="white" />
    </clipPath>
  </defs>
</svg>