<svg width="26" height="26" viewBox="0 0 26 26" fill="none" xmlns="http://www.w3.org/2000/svg">
  <path d="M9.75433 3.70084C9.13467 2.82334 8.27667 2.42793 7.36667 2.43768C6.50325 2.44634 5.66258 2.81576 4.96058 3.30759C4.24456 3.81169 3.63402 4.45093 3.16333 5.18934C2.71917 5.89243 2.3985 6.72334 2.44183 7.53476C2.65092 11.438 4.84683 15.6088 7.93108 18.6953C11.0132 21.7784 15.1287 23.9213 19.2844 23.5118C20.0991 23.4316 20.8693 23.0167 21.4987 22.488C22.1498 21.9366 22.6816 21.2584 23.062 20.4947C23.4303 19.745 23.6502 18.8805 23.5289 18.0388C23.4032 17.1613 22.9125 16.3769 22.0101 15.8569C21.8231 15.7485 21.6382 15.6365 21.4554 15.5211C21.2929 15.4203 21.1196 15.3109 20.9094 15.1853C20.4801 14.9206 20.0272 14.6965 19.5563 14.5158C19.0721 14.3392 18.5185 14.2233 17.9422 14.3023C17.3452 14.3847 16.7906 14.6663 16.3107 15.1712C15.9412 15.5612 15.3974 15.6825 14.6326 15.4615C13.8547 15.2362 12.9794 14.6772 12.2189 13.921C11.4584 13.167 10.8832 12.2852 10.6372 11.4889C10.3946 10.7003 10.5018 10.1207 10.881 9.72093C11.3934 9.18143 11.6664 8.58126 11.7238 7.94643C11.7802 7.32893 11.6263 6.74826 11.4064 6.24126C11.0771 5.48401 10.5181 4.73109 10.0804 4.14393C9.97038 3.99713 9.86204 3.84906 9.75542 3.69976" fill="#252525" />
</svg>