<svg width="12" height="12" viewBox="0 0 12 12" fill="none" xmlns="http://www.w3.org/2000/svg">
  <path d="M4.5 8.08492L2.765 6.34992C2.67151 6.25643 2.54471 6.20391 2.4125 6.20391C2.28028 6.20391 2.15349 6.25643 2.06 6.34992C1.96651 6.44341 1.91399 6.5702 1.91399 6.70242C1.91399 6.76788 1.92688 6.83271 1.95193 6.89319C1.97699 6.95367 2.01371 7.00863 2.06 7.05492L4.15 9.14492C4.345 9.33992 4.66 9.33992 4.855 9.14492L10.145 3.85492C10.2385 3.76143 10.291 3.63463 10.291 3.50242C10.291 3.3702 10.2385 3.24341 10.145 3.14992C10.0515 3.05643 9.92471 3.00391 9.7925 3.00391C9.66028 3.00391 9.53349 3.05643 9.44 3.14992L4.5 8.08492Z" fill="white" />
</svg>