<svg width="20" height="20" viewBox="0 0 20 20" fill="none" xmlns="http://www.w3.org/2000/svg">
  <g clip-path="url(#clip0_526_137)">
    <path d="M20 18.3333L18.3333 20L16.6667 18.3333V1.66667C16.6667 1.22464 16.8423 0.800716 17.1548 0.488155C17.4674 0.175595 17.8913 0 18.3333 0C18.7754 0 19.1993 0.175595 19.5118 0.488155C19.8244 0.800716 20 1.22464 20 1.66667V18.3333ZM15 1.66667V17.5C15 18.8783 13.8783 20 12.5 20H2.5C1.12167 20 0 18.8783 0 17.5V1.66667H1.66667V0H3.33333V1.66667H5V0H6.66667V1.66667H8.33333V0H10V1.66667H11.6667V0H13.3333V1.66667H15ZM8.33333 12.5H3.33333V14.1667H8.33333V12.5ZM11.6667 9.16667H3.33333V10.8333H11.6667V9.16667ZM11.6667 5.83333H3.33333V7.5H11.6667V5.83333Z" fill="white" />
  </g>
  <defs>
    <clipPath id="clip0_526_137">
      <rect width="20" height="20" fill="white" />
    </clipPath>
  </defs>
</svg>