<svg width="22" height="22" viewBox="0 0 22 22" fill="none" xmlns="http://www.w3.org/2000/svg">
  <path d="M16.5 11.9165C15.6937 11.9137 14.9092 12.1777 14.2685 12.6672C13.6278 13.1567 13.167 13.8443 12.9578 14.623C12.7486 15.4016 12.8028 16.2276 13.1118 16.9723C13.4209 17.717 13.9676 18.3385 14.6667 18.7402V21.3371C14.6666 21.4679 14.7053 21.5957 14.778 21.7045C14.8506 21.8132 14.9538 21.898 15.0746 21.948C15.1954 21.9981 15.3284 22.0112 15.4566 21.9856C15.5849 21.9601 15.7027 21.8971 15.7951 21.8046L16.5 21.1006L17.2049 21.8046C17.2974 21.8971 17.4151 21.9601 17.5434 21.9856C17.6716 22.0112 17.8046 21.9981 17.9254 21.948C18.0462 21.898 18.1494 21.8132 18.2221 21.7045C18.2947 21.5957 18.3334 21.4679 18.3333 21.3371V18.7402C19.0324 18.3385 19.5791 17.717 19.8882 16.9723C20.1972 16.2276 20.2514 15.4016 20.0422 14.623C19.833 13.8443 19.3722 13.1567 18.7315 12.6672C18.0908 12.1777 17.3063 11.9137 16.5 11.9165Z" fill="white" />
  <path d="M11 15.5833C10.9989 14.6175 11.2524 13.6685 11.735 12.8319C12.2176 11.9953 12.9122 11.3007 13.7488 10.8182C14.5855 10.3356 15.5345 10.0822 16.5003 10.0833C17.4661 10.0845 18.4146 10.3403 19.25 10.8249V4.58333C19.2485 3.3682 18.7652 2.20326 17.906 1.34403C17.0467 0.484808 15.8818 0.00145554 14.6667 0L7.33333 0C6.1182 0.00145554 4.95326 0.484808 4.09403 1.34403C3.23481 2.20326 2.75146 3.3682 2.75 4.58333V15.5833C2.75146 16.7985 3.23481 17.9634 4.09403 18.8226C4.95326 19.6819 6.1182 20.1652 7.33333 20.1667H12.8333V19.6717C12.2568 19.1579 11.7954 18.5281 11.4795 17.8235C11.1635 17.119 11.0001 16.3555 11 15.5833ZM7.33333 3.66667H14.6667C14.9098 3.66667 15.1429 3.76324 15.3148 3.93515C15.4868 4.10706 15.5833 4.34022 15.5833 4.58333C15.5833 4.82645 15.4868 5.05961 15.3148 5.23151C15.1429 5.40342 14.9098 5.5 14.6667 5.5H7.33333C7.09022 5.5 6.85706 5.40342 6.68515 5.23151C6.51324 5.05961 6.41667 4.82645 6.41667 4.58333C6.41667 4.34022 6.51324 4.10706 6.68515 3.93515C6.85706 3.76324 7.09022 3.66667 7.33333 3.66667ZM7.33333 7.33333H14.6667C14.9098 7.33333 15.1429 7.42991 15.3148 7.60182C15.4868 7.77373 15.5833 8.00688 15.5833 8.25C15.5833 8.49311 15.4868 8.72627 15.3148 8.89818C15.1429 9.07009 14.9098 9.16667 14.6667 9.16667H7.33333C7.09022 9.16667 6.85706 9.07009 6.68515 8.89818C6.51324 8.72627 6.41667 8.49311 6.41667 8.25C6.41667 8.00688 6.51324 7.77373 6.68515 7.60182C6.85706 7.42991 7.09022 7.33333 7.33333 7.33333ZM10.0833 12.8333H7.33333C7.09022 12.8333 6.85706 12.7368 6.68515 12.5648C6.51324 12.3929 6.41667 12.1598 6.41667 11.9167C6.41667 11.6736 6.51324 11.4404 6.68515 11.2685C6.85706 11.0966 7.09022 11 7.33333 11H10.0833C10.3264 11 10.5596 11.0966 10.7315 11.2685C10.9034 11.4404 11 11.6736 11 11.9167C11 12.1598 10.9034 12.3929 10.7315 12.5648C10.5596 12.7368 10.3264 12.8333 10.0833 12.8333Z" fill="white" fill-opacity="0.9" />
</svg>