<svg width="20" height="20" viewBox="0 0 20 20" fill="none" xmlns="http://www.w3.org/2000/svg">
  <g clip-path="url(#clip0_112_236)">
    <path d="M10 4.16667C10.5525 4.16667 11.0824 4.38616 11.4731 4.77686C11.8638 5.16756 12.0833 5.69747 12.0833 6.25C12.0833 6.80253 11.8638 7.33244 11.4731 7.72314C11.0824 8.11384 10.5525 8.33333 10 8.33333C9.44746 8.33333 8.91756 8.11384 8.52686 7.72314C8.13616 7.33244 7.91667 6.80253 7.91667 6.25C7.91667 5.69747 8.13616 5.16756 8.52686 4.77686C8.91756 4.38616 9.44746 4.16667 10 4.16667ZM13.3333 11.6667V14.1667C13.3333 14.9025 13.0075 15.5583 12.5 16.0167V19.1667C12.5 19.3877 12.4122 19.5996 12.2559 19.7559C12.0996 19.9122 11.8877 20 11.6667 20C11.4457 20 11.2337 19.9122 11.0774 19.7559C10.9211 19.5996 10.8333 19.3877 10.8333 19.1667V16.6667H9.16667V19.1667C9.16667 19.3877 9.07887 19.5996 8.92259 19.7559C8.76631 19.9122 8.55435 20 8.33333 20C8.11232 20 7.90036 19.9122 7.74408 19.7559C7.5878 19.5996 7.5 19.3877 7.5 19.1667V16.0167C7.23881 15.7842 7.02958 15.4993 6.88599 15.1806C6.74239 14.8618 6.66766 14.5163 6.66667 14.1667V11.6667C6.66667 10.2883 7.78833 9.16667 9.16667 9.16667H10.8333C12.2117 9.16667 13.3333 10.2883 13.3333 11.6667ZM4.16667 4.16667C4.7192 4.16667 5.2491 3.94717 5.63981 3.55647C6.03051 3.16577 6.25 2.63587 6.25 2.08333C6.25 1.5308 6.03051 1.0009 5.63981 0.610194C5.2491 0.219493 4.7192 0 4.16667 0C3.61413 0 3.08423 0.219493 2.69353 0.610194C2.30283 1.0009 2.08333 1.5308 2.08333 2.08333C2.08333 2.63587 2.30283 3.16577 2.69353 3.55647C3.08423 3.94717 3.61413 4.16667 4.16667 4.16667ZM6.25 6.25C6.25 5.92333 6.305 5.6125 6.38417 5.31C5.95066 5.10768 5.47839 5.00191 5 5H3.33333C1.495 5 0 6.495 0 8.33333V10.8333C0 12.0617 0.675 13.125 1.66667 13.7033V19.1667C1.66667 19.3877 1.75446 19.5996 1.91074 19.7559C2.06702 19.9122 2.27899 20 2.5 20C2.72101 20 2.93298 19.9122 3.08926 19.7559C3.24554 19.5996 3.33333 19.3877 3.33333 19.1667V14.1667H5V11.6667C5 10.2367 5.725 8.97417 6.825 8.22333C6.45169 7.63267 6.2524 6.94874 6.25 6.25ZM15.8333 4.16667C16.3859 4.16667 16.9158 3.94717 17.3065 3.55647C17.6972 3.16577 17.9167 2.63587 17.9167 2.08333C17.9167 1.5308 17.6972 1.0009 17.3065 0.610194C16.9158 0.219493 16.3859 0 15.8333 0C15.2808 0 14.7509 0.219493 14.3602 0.610194C13.9695 1.0009 13.75 1.5308 13.75 2.08333C13.75 2.63587 13.9695 3.16577 14.3602 3.55647C14.7509 3.94717 15.2808 4.16667 15.8333 4.16667ZM19.9808 13.8567L19.2508 8.0175C19.146 7.18479 18.741 6.41891 18.1119 5.86341C17.4827 5.30791 16.6726 5.00093 15.8333 5C15.03 5 14.2908 5.28667 13.7 5.75667C13.7217 5.92 13.75 6.08083 13.75 6.25C13.75 6.97583 13.5333 7.64917 13.175 8.22333C13.7369 8.60495 14.197 9.11822 14.5151 9.71839C14.8332 10.3186 14.9996 10.9874 15 11.6667V14.1667C14.9978 15.063 14.7055 15.9345 14.1667 16.6508V16.6667H16.6667V19.1667C16.6667 19.3877 16.7545 19.5996 16.9107 19.7559C17.067 19.9122 17.279 20 17.5 20C17.721 20 17.933 19.9122 18.0893 19.7559C18.2455 19.5996 18.3333 19.3877 18.3333 19.1667V16.51C18.733 16.3726 19.0912 16.1357 19.3742 15.8217C19.6086 15.5559 19.7838 15.2433 19.8884 14.9047C19.993 14.5661 20.0245 14.2083 19.9808 13.8567Z" fill="white" />
  </g>
  <defs>
    <clipPath id="clip0_112_236">
      <rect width="20" height="20" fill="white" />
    </clipPath>
  </defs>
</svg>