<svg width="20" height="20" viewBox="0 0 20 20" fill="none" xmlns="http://www.w3.org/2000/svg">
  <path d="M11.6667 5.83333V0.383333C12.4375 0.674446 13.1377 1.12609 13.7208 1.70833L16.6242 4.61333C17.2071 5.19573 17.6591 5.89575 17.95 6.66667H12.5C12.279 6.66667 12.067 6.57887 11.9107 6.42259C11.7545 6.26631 11.6667 6.05435 11.6667 5.83333ZM18.3333 8.7375V15.8333C18.332 16.938 17.8926 17.997 17.1115 18.7782C16.3304 19.5593 15.2713 19.9987 14.1667 20H5.83333C4.72867 19.9987 3.66963 19.5593 2.88851 18.7782C2.1074 17.997 1.66799 16.938 1.66666 15.8333V4.16667C1.66799 3.062 2.1074 2.00296 2.88851 1.22185C3.66963 0.440735 4.72867 0.00132321 5.83333 0L9.59583 0C9.73166 0 9.86583 0.0108333 10 0.02V5.83333C10 6.49637 10.2634 7.13226 10.7322 7.6011C11.2011 8.06994 11.837 8.33333 12.5 8.33333H18.3133C18.3225 8.4675 18.3333 8.60167 18.3333 8.7375ZM11.6667 15.8333C11.6667 15.6123 11.5789 15.4004 11.4226 15.2441C11.2663 15.0878 11.0543 15 10.8333 15H6.66666C6.44565 15 6.23369 15.0878 6.07741 15.2441C5.92113 15.4004 5.83333 15.6123 5.83333 15.8333C5.83333 16.0543 5.92113 16.2663 6.07741 16.4226C6.23369 16.5789 6.44565 16.6667 6.66666 16.6667H10.8333C11.0543 16.6667 11.2663 16.5789 11.4226 16.4226C11.5789 16.2663 11.6667 16.0543 11.6667 15.8333ZM14.1667 12.5C14.1667 12.279 14.0789 12.067 13.9226 11.9107C13.7663 11.7545 13.5543 11.6667 13.3333 11.6667H6.66666C6.44565 11.6667 6.23369 11.7545 6.07741 11.9107C5.92113 12.067 5.83333 12.279 5.83333 12.5C5.83333 12.721 5.92113 12.933 6.07741 13.0893C6.23369 13.2455 6.44565 13.3333 6.66666 13.3333H13.3333C13.5543 13.3333 13.7663 13.2455 13.9226 13.0893C14.0789 12.933 14.1667 12.721 14.1667 12.5Z" fill="white" />
</svg>