<svg width="1276" height="471" viewBox="0 0 1276 471" fill="none" xmlns="http://www.w3.org/2000/svg">
  <path d="M2.5 237C23.4387 176.051 56.1249 128.875 128 162.5C199.875 196.125 236.75 168.25 290 106C343.25 43.75 421.689 51.8008 492.564 92.6758C563.439 133.551 689.5 -20.6252 755 2.49979C820.5 25.6248 835.875 131.551 906.5 92.6758C977.125 53.8009 1019.25 90.25 1078.5 136.5C1137.75 182.75 1148.5 157 1202 146C1255.5 135 1283 207.5 1296.5 239.5C1310 271.5 1400.5 671.5 1400.5 671.5L-34.5 542C-34.5 542 -18.4387 297.949 2.5 237Z" fill="#C9EEC5" />
</svg>